# AST/ASF file generated using VICON BodyLanguage
# -----------------------------------------------
:version 1.10
:name VICON
:units
  mass 1.0
  length 0.45
  angle deg
:documentation
   .ast/.asf automatically generated from VICON data using
   VICON BodyBuilder and BodyLanguage model FoxedUp or BRILLIANT.MOD
:root
   order TX TY TZ RX RY RZ
   axis XYZ
   position 0 0 0  
   orientation 0 0 0 
:bonedata
  begin
     id 1 
     name lhipjoint
     direction 0.660183 -0.676772 0.325788 
     length 2.75133 
     axis 0 0 0  XYZ
  end
  begin
     id 2 
     name lfemur
     direction 0.34202 -0.939693 0  
     length 7.70317  
     axis 0 0 20  XYZ
    dof rx ry rz
    limits (-160.0 20.0)
           (-70.0 70.0)
           (-60.0 70.0)
  end
  begin
     id 3 
     name ltibia
     direction 0.342105 -0.939662 0   
     length 7.18701   
     axis 0 0 20   XYZ
    dof rx
    limits (-10.0 170.0)
  end
  begin
     id 4 
     name lfoot
     direction 0.14163 -0.389126 0.910232   
     length 2.41719   
     axis -90 7.62852e-016 20   XYZ
    dof rx rz
    limits (-45.0 90.0)
           (-70.0 20.0)
  end
  begin
     id 5 
     name ltoes
     direction 1.53533e-011 -4.21926e-011 1   
     length 1.18611   
     axis -90 7.62852e-016 20   XYZ
    dof rx
    limits (-90.0 20.0)
  end
  begin
     id 6 
     name rhipjoint
     direction -0.6658 -0.67229 0.323631   
     length 2.76968  
     axis 0 0 0  XYZ 
  end
  begin
     id 7 
     name rfemur
     direction -0.34202 -0.939693 0   
     length 7.92547   
     axis 0 0 -20   XYZ
    dof rx ry rz
    limits (-160.0 20.0)
           (-70.0 70.0)
           (-70.0 60.0)
  end
  begin
     id 8 
     name rtibia
     direction -0.342022 -0.939692 0   
     length 7.22641   
     axis 0 0 -20   XYZ
    dof rx
    limits (-10.0 170.0)
 end
 begin
     id 9 
     name rfoot
     direction -0.105675 -0.29034 0.951071   
     length 2.48149  
     axis -90 -7.62852e-016 -20   XYZ
    dof rx rz
    limits (-45.0 90.0)
           (-20.0 70.0)
  end
  begin
     id 10 
     name rtoes
     direction -1.5349e-011 -4.21859e-011 1   
     length 1.23343   
     axis -90 -7.62852e-016 -20   XYZ
    dof rx
    limits (-90.0 20.0)
  end
  begin
     id 11 
     name lowerback
     direction 0.0104173 0.993624 -0.112266   
     length 2.00527   
     axis 0 0 0   XYZ
    dof rx ry rz
    limits (-20.0 45.0)
           (-30.0 30.0)
           (-30.0 30.0)
  end
  begin
     id 12 
     name upperback
     direction 0.00733149 0.999856 -0.0152913   
     length 2.01385   
     axis 0 0 0   XYZ
    dof rx ry rz
    limits (-20.0 45.0)
           (-30.0 30.0)
           (-30.0 30.0)
  end
  begin
     id 13 
     name thorax
     direction 0.0026304 0.999318 0.036841   
     length 2.03734   
     axis 0 0 0   XYZ
    dof rx ry rz
    limits (-20.0 45.0)
           (-30.0 30.0)
           (-30.0 30.0)
  end
  begin
     id 14 
     name lowerneck
     direction 0.0293154 0.998757 0.0403082   
     length 1.65303   
     axis 0 0 0   XYZ
    dof rx ry rz
    limits (-20.0 45.0)
           (-30.0 30.0)
           (-30.0 30.0)
  end
  begin
     id 15 
     name upperneck
     direction -0.0376619 0.998184 -0.0470083   
     length 1.60926   
     axis 0 0 0   XYZ
    dof rx ry rz
    limits (-20.0 45.0)
           (-30.0 30.0)
           (-30.0 30.0)
  end
  begin
     id 16
     name head
     direction -0.0170133 0.999635 -0.0209778  
     length 1.73625  
     axis 0 0 0   XYZ
    dof rx ry rz
    limits (-20.0 45.0)
           (-30.0 30.0)
           (-30.0 30.0)
  end
  begin
     id 17 
     name lclavicle
     direction 0.919857 0.39181 -0.0186333  
     length 3.75313  
     axis 0 0 0   XYZ
    dof ry rz
    limits (-20.0 10.0)
           (0.0 20.0)
  end
  begin
     id 18 
     name lhumerus
     direction 1 -4.48988e-011 1.44029e-027   
     length 5.49313   
     axis 180 -30 -90   XYZ
    dof rx ry rz
    limits (-60.0 90.0)
           (-90.0 90.0)
           (-90.0 90.0)
  end
  begin
     id 19
     name lradius
     direction 1 -4.48924e-011 7.46281e-027   
     length 3.29037   
     axis 180 -30 -90   XYZ
    dof rx
    limits (-10.0 170.0)
  end
  begin
     id 20
     name lwrist
     direction 1 -4.48955e-011 2.19879e-026   
     length 1.64519   
     axis -1.34358e-014 90 90   XYZ
    dof ry
    limits (-180.0 0.0)
 end
  begin
     id 21 
     name lhand
     direction 1 -4.48978e-011 4.39747e-026   
     length 0.729656   
     axis -2.80598e-014 90 90   XYZ
    dof rx rz
    limits (-90.0 90.0)
           (-45.0 45.0)
  end
  begin
     id 22 
     name lfingers
     direction 1 -4.49071e-011 8.79411e-026   
     length 0.588268   
     axis -5.61193e-014 90 90   XYZ
    dof rx
    limits (0.0 90.0)
  end
  begin
     id 23
     name lthumb
     direction 0.707107 -6.34817e-011 0.707107   
     length 0.844638   
     axis -90 45 -9.86923e-015   XYZ
    dof rx rz
    limits (-45.0 45.0)
           (-45.0 45.0)
  end
  begin
     id 24 
     name rclavicle
     direction -0.919898 0.388279 0.0550233   
     length 3.7171  
     axis 0 0 0   XYZ 
    dof ry rz
    limits (-10.0 20.0)
           (-20.0 0.0)
  end
  begin
     id 25 
     name rhumerus
     direction -1 -4.48968e-011 9.98372e-028  
     length 5.23684   
     axis 180 30 90   XYZ
    dof rx ry rz
    limits (-90.0 60.0)
           (-90.0 90.0)
           (-90.0 90.0)
  end
  begin
     id 26 
     name rradius
     direction -1 -4.48956e-011 1.01023e-026   
     length 3.38251   
     axis 180 30 90   XYZ
    dof rx
    limits (-10.0 170.0)
  end
  begin
     id 27 
     name rwrist
     direction -1 -4.4892e-011 2.19886e-026   
     length 1.69126   
     axis -1.34358e-014 -90 -90   XYZ
    dof ry
    limits (-180.0 0.0)
  end
  begin
     id 28
     name rhand
     direction -1 -4.49024e-011 4.39727e-026   
     length 0.691454   
     axis -2.80598e-014 -90 -90   XYZ
    dof rx rz
    limits (-90.0 90.0)
           (-45.0 45.0)
  end
  begin
     id 29
     name rfingers
     direction -1 -4.49097e-011 8.79388e-026   
     length 0.557468   
     axis -5.61193e-014 -90 -90   XYZ
    dof rx
    limits (0.0 90.0)
  end
  begin
     id 30
     name rthumb
     direction -0.707107 -6.34938e-011 0.707107   
     length 0.800416   
     axis -90 -45 9.86923e-015   XYZ
    dof rx rz
    limits (-45.0 45.0)
           (-45.0 45.0)
  end
:hierarchy
  begin
    root lhipjoint rhipjoint lowerback
    lhipjoint lfemur
    lfemur ltibia
    ltibia lfoot
    lfoot ltoes
    rhipjoint rfemur
    rfemur rtibia
    rtibia rfoot
    rfoot rtoes
    lowerback upperback
    upperback thorax
    thorax lowerneck lclavicle rclavicle
    lowerneck upperneck
    upperneck head
    lclavicle lhumerus
    lhumerus lradius
    lradius lwrist
    lwrist lhand lthumb
    lhand lfingers
    rclavicle rhumerus
    rhumerus rradius
    rradius rwrist
    rwrist rhand rthumb
    rhand rfingers
  end

#!OML:ASF H:\BabyWalks\Project 1\Capture day 1\Session 1\baby.ASF
:FULLY-SPECIFIED
:DEGREES
299
root -16.4583 17.1675 -1.61638 -4.69175 86.6444 -8.55926
lowerback 18.1266 -1.63046 0.227244
upperback 5.82479 -1.71502 0.943427
thorax -3.87531 -0.710636 1.21983
lowerneck 2.05742 0.694634 6.02001
upperneck -12.1788 0.743649 -6.49389
head -3.90691 0.491678 -3.01512
rclavicle -2.5842e-015 1.88845e-014
rhumerus -46.5925 0.861602 -75.7098
rradius 35.6659
rwrist 6.22176
rhand 0.952826 -17.5746
rfingers 7.12502
rthumb 26.5027 -45.7411
lclavicle -2.5842e-015 1.88845e-014
lhumerus -46.8057 -1.22649 77.8777
lradius 56.5838
lwrist 5.96403
lhand -11.9774 8.19083
lfingers 7.12502
lthumb 14.0788 37.6939
rfemur -25.948 14.2429 16.9092
rtibia 41.6199
rfoot -21.2166 -1.4087
rtoes -16.7966
lfemur -6.11576 2.15319 -12.4925
ltibia 54.2428
lfoot -17.133 -22.8216
ltoes -11.537
300
root -16.2729 17.117 -1.57519 -13.1754 86.8806 -16.537
lowerback 18.3592 -1.67617 0.875008
upperback 5.99526 -1.63221 1.09775
thorax -3.83161 -0.661074 1.0019
lowerneck 2.47263 0.643027 6.00173
upperneck -12.553 0.686415 -6.47794
head -4.09365 0.471591 -3.01319
rclavicle -7.95139e-015 -3.57812e-015
rhumerus -46.5629 0.450985 -75.6085
rradius 35.4567
rwrist 6.44506
rhand 0.133798 -17.3507
rfingers 7.12502
rthumb 25.7185 -45.6329
lclavicle -7.95139e-015 -3.57812e-015
lhumerus -47.0521 -0.382635 77.4892
lradius 55.2954
lwrist 4.85812
lhand -12.3046 8.74675
lfingers 7.12502
lthumb 13.7635 38.2715
rfemur -24.9457 14.3712 17.8331
rtibia 42.4765
rfoot -21.8868 -1.80622
rtoes -15.8109
lfemur -6.92644 2.53708 -11.5869
ltibia 57.05
lfoot -17.2039 -23.913
ltoes -11.3779
301
root -16.0871 17.0708 -1.53505 -25.3068 86.9539 -28.2305
lowerback 18.5431 -1.71736 1.6302
upperback 6.15184 -1.52046 1.30498
thorax -3.77635 -0.596247 0.771896
lowerneck 2.75497 0.608487 5.97082
upperneck -12.806 0.646885 -6.47151
head -4.22052 0.458916 -3.01012
rclavicle -1.28216e-014 -2.82274e-014
rhumerus -46.4657 0.0373458 -75.4859
rradius 35.191
rwrist 6.75695
rhand -0.78484 -17.1414
rfingers 7.12502
rthumb 24.8384 -45.548
lclavicle -1.28216e-014 -2.82274e-014
lhumerus -47.3457 0.456564 77.1197
lradius 53.9977
lwrist 3.81733
lhand -12.701 9.38263
lfingers 7.12502
lthumb 13.3814 38.9329
rfemur -23.9402 14.5686 18.9332
rtibia 43.1746
rfoot -22.4526 -2.32431
rtoes -14.8604
lfemur -7.87455 2.9759 -10.5065
ltibia 59.7873
lfoot -17.5418 -24.9716
ltoes -11.3427
302
root -15.9035 17.0193 -1.49676 -38.6475 86.8206 -41.2355
lowerback 18.6574 -1.74538 2.43553
upperback 6.27549 -1.38222 1.55081
thorax -3.71668 -0.518112 0.547691
lowerneck 2.88998 0.585667 5.93842
upperneck -12.9003 0.616272 -6.49189
head -4.27377 0.44919 -3.01214
rclavicle -7.95139e-015 1.35174e-014
rhumerus -46.3261 -0.374473 -75.3424
rradius 34.8965
rwrist 7.15596
rhand -1.78995 -16.9769
rfingers 7.12502
rthumb 23.8748 -45.513
lclavicle -7.95139e-015 1.35174e-014
lhumerus -47.6951 1.22577 76.7971
lradius 52.7178
lwrist 2.89443
lhand -13.1375 10.1172
lfingers 7.12502
lthumb 12.9607 39.6947
rfemur -23.0087 14.8047 20.1237
rtibia 43.7584
rfoot -23.0304 -2.88722
rtoes -13.9218
lfemur -9.02484 3.4745 -9.3282
ltibia 62.4446
lfoot -18.0905 -25.9277
ltoes -11.4152
303
root -15.7202 16.9722 -1.46072 -50.1147 86.5177 -52.4761
lowerback 18.6891 -1.74629 3.21503
upperback 6.36254 -1.21738 1.80642
thorax -3.6483 -0.427393 0.341823
lowerneck 2.88779 0.569541 5.91258
upperneck -12.836 0.588014 -6.5463
head -4.2553 0.439191 -3.02264
rclavicle -1.36167e-014 1.63003e-014
rhumerus -46.1616 -0.775191 -75.191
rradius 34.6101
rwrist 7.615
rhand -2.8733 -16.8947
rfingers 7.12502
rthumb 22.8356 -45.5629
lclavicle -1.36167e-014 1.63003e-014
lhumerus -48.0827 1.88381 76.5404
lradius 51.4594
lwrist 2.08689
lhand -13.5664 10.9402
lfingers 7.12502
lthumb 12.5471 40.5435
rfemur -22.1446 15.0647 21.2973
rtibia 44.2346
rfoot -23.6793 -3.40501
rtoes -13.1504
lfemur -10.3467 4.03831 -8.17974
ltibia 64.9337
lfoot -18.7825 -26.6969
ltoes -11.5834
304
root -15.5376 16.9307 -1.4269 -58.8092 86.1641 -61.0454
lowerback 18.6526 -1.71867 3.89217
upperback 6.41383 -1.04039 2.04918
thorax -3.57724 -0.332011 0.177316
lowerneck 2.76854 0.559739 5.89552
upperneck -12.6418 0.562155 -6.63959
head -4.17724 0.429419 -3.04411
rclavicle -9.93923e-016 -7.95139e-016
rhumerus -45.981 -1.14265 -75.0505
rradius 34.3629
rwrist 8.09202
rhand -4.0259 -16.9101
rfingers 7.12502
rthumb 21.7291 -45.7105
lclavicle -9.93923e-016 -7.95139e-016
lhumerus -48.4982 2.41957 76.3546
lradius 50.2285
lwrist 1.3543
lhand -13.9199 11.7768
lfingers 7.12502
lthumb 12.2063 41.4006
rfemur -21.3642 15.3152 22.3589
rtibia 44.6366
rfoot -24.3446 -3.92375
rtoes -12.5352
lfemur -11.8277 4.6362 -7.17648
ltibia 67.2022
lfoot -19.5515 -27.1806
ltoes -11.8751
305
root -15.356 16.8961 -1.39533 -65.159 85.8801 -67.3454
lowerback 18.5761 -1.65911 4.40758
upperback 6.42896 -0.858789 2.24851
thorax -3.51947 -0.236715 0.0574935
lowerneck 2.60189 0.547037 5.89563
upperneck -12.3764 0.529727 -6.76557
head -4.06985 0.415763 -3.07705
rclavicle 5.96354e-016 3.10104e-014
rhumerus -45.8113 -1.47315 -74.9501
rradius 34.1928
rwrist 8.54144
rhand -5.22892 -17.0662
rfingers 7.12502
rthumb 20.5734 -45.996
lclavicle 5.96354e-016 3.10104e-014
lhumerus -48.939 2.81716 76.2323
lradius 49.0244
lwrist 0.626896
lhand -14.1194 12.5585
lfingers 7.12502
lthumb 12.0139 42.1937
rfemur -20.642 15.5353 23.225
rtibia 44.9544
rfoot -24.9903 -4.46686
rtoes -12.087
lfemur -13.4243 5.22881 -6.4276
ltibia 69.1803
lfoot -20.3364 -27.3258
ltoes -12.262
306
root -15.1752 16.8691 -1.36601 -70.0497 85.7406 -72.2223
lowerback 18.4929 -1.57197 4.72694
upperback 6.42 -0.682774 2.38739
thorax -3.48118 -0.146794 -0.0139522
lowerneck 2.45058 0.527436 5.90909
upperneck -12.1154 0.488245 -6.90879
head -3.96705 0.39778 -3.11745
rclavicle 5.1684e-015 1.82882e-014
rhumerus -45.6661 -1.74761 -74.9141
rradius 34.1271
rwrist 8.92039
rhand -6.47927 -17.3531
rfingers 7.12502
rthumb 19.3716 -46.4082
lclavicle 5.1684e-015 1.82882e-014
lhumerus -49.3936 3.08763 76.1622
lradius 47.8482
lwrist -0.144972
lhand -14.1011 13.2353
lfingers 7.12502
lthumb 12.0317 42.8694
rfemur -19.9339 15.7036 23.859
rtibia 45.1938
rfoot -25.6321 -5.00554
rtoes -11.8169
lfemur -15.08 5.77383 -5.99754
ltibia 70.8281
lfoot -21.1195 -27.1425
ltoes -12.7441
307
root -14.9952 16.8495 -1.33914 -74.2165 85.7483 -76.3825
lowerback 18.4343 -1.46453 4.87723
upperback 6.39456 -0.514224 2.45968
thorax -3.47222 -0.0629783 -0.0582831
lowerneck 2.36088 0.498136 5.94118
upperneck -11.9182 0.435515 -7.063
head -3.89466 0.37515 -3.1653
rclavicle -8.74653e-015 -3.65764e-014
rhumerus -45.5497 -1.95799 -74.9655
rradius 34.1693
rwrist 9.19472
rhand -7.76756 -17.7503
rfingers 7.12502
rthumb 18.1325 -46.9251
lclavicle -8.74653e-015 -3.65764e-014
lhumerus -49.8702 3.23845 76.1246
lradius 46.7162
lwrist -0.979005
lhand -13.8116 13.719
lfingers 7.12502
lthumb 12.3107 43.3366
rfemur -19.2002 15.8167 24.2838
rtibia 45.3441
rfoot -26.2628 -5.5184
rtoes -11.6928
lfemur -16.7508 6.24523 -5.8755
ltibia 72.1255
lfoot -21.8805 -26.6977
ltoes -13.3055
308
root -14.8156 16.8366 -1.31486 -78.286 85.8652 -80.4257
lowerback 18.419 -1.34672 4.90947
upperback 6.36504 -0.353947 2.47432
thorax -3.49018 0.0153282 -0.0948204
lowerneck 2.34542 0.457568 5.98919
upperneck -11.8113 0.369903 -7.21856
head -3.86294 0.347398 -3.21748
rclavicle 2.38542e-015 1.23246e-014
rhumerus -45.4657 -2.09117 -75.1147
rradius 34.3211
rwrist 9.33519
rhand -9.09393 -18.214
rfingers 7.12502
rthumb 16.856 -47.5024
lclavicle 2.38542e-015 1.23246e-014
lhumerus -50.358 3.28637 76.1067
lradius 45.6331
lwrist -1.85507
lhand -13.2104 13.9772
lfingers 7.12502
lthumb 12.8903 43.5591
rfemur -18.3856 15.8734 24.5605
rtibia 45.3827
rfoot -26.8689 -6.02185
rtoes -11.7047
lfemur -18.3931 6.62484 -6.00228
ltibia 73.0646
lfoot -22.5976 -26.0635
ltoes -13.8858
309
root -14.6361 16.8298 -1.29348 -82.6176 86.0133 -84.706
lowerback 18.4519 -1.23073 4.90728
upperback 6.33801 -0.200841 2.4495
thorax -3.53084 0.0897696 -0.151915
lowerneck 2.3728 0.409812 6.04338
upperneck -11.7766 0.29626 -7.36568
head -3.86095 0.316479 -3.26906
rclavicle -1.98785e-015 -2.10712e-014
rhumerus -45.4079 -2.13435 -75.362
rradius 34.5692
rwrist 9.34621
rhand -10.4374 -18.6827
rfingers 7.12502
rthumb 15.5624 -48.0765
lclavicle -1.98785e-015 -2.10712e-014
lhumerus -50.8542 3.25873 76.0928
lradius 44.612
lwrist -2.71551
lhand -12.2798 13.9902
lfingers 7.12502
lthumb 13.7873 43.5134
rfemur -17.47 15.8768 24.7756
rtibia 45.2826
rfoot -27.445 -6.48224
rtoes -11.7929
lfemur -19.9869 6.91174 -6.27775
ltibia 73.6503
lfoot -23.2585 -25.3283
ltoes -14.4447
310
root -14.456 16.8294 -1.27503 -87.2863 86.1493 -89.31
lowerback 18.5187 -1.11659 4.91089
upperback 6.31162 -0.048091 2.39804
thorax -3.58839 0.163951 -0.240461
lowerneck 2.4221 0.354365 6.0965
upperneck -11.7849 0.213655 -7.49848
head -3.87649 0.281391 -3.31641
rclavicle 7.7526e-015 1.59028e-015
rhumerus -45.3831 -2.09587 -75.6915
rradius 34.909
rwrist 9.21717
rhand -11.7634 -19.1098
rfingers 7.12502
rthumb 14.285 -48.5985
lclavicle 7.7526e-015 1.59028e-015
lhumerus -51.3619 3.1585 76.0794
lradius 43.6739
lwrist -3.47332
lhand -11.0211 13.7732
lfingers 7.12502
lthumb 15.0001 43.2098
rfemur -16.4605 15.8283 24.969
rtibia 45.0238
rfoot -27.9618 -6.89322
rtoes -11.9659
lfemur -21.5324 7.10922 -6.64575
ltibia 73.8865
lfoot -23.8723 -24.5743
ltoes -15.0087
